# xmcd
#
# Track frame offsets:
#	150
#	15057
#	31810
#	50653
#	66807
#	82407
#	102444
#	119921
#	133027
#	146854
#
# Disc length: 2274 seconds
#
# Revision: 1
# Processed by: cddbd v1.5.1PL0 Copyright (c) Steve Scherf et al.
# Submitted via: audiograbber 1.83.01
#
DISCID=9208e00a
DTITLE=Gretchen Wilson - Here for the Party
DYEAR=2004
DGENRE=
TTITLE0=Here For The Party
TTITLE1=Redneck Woman
TTITLE2=When I Think About Cheatin'
TTITLE3=Homewrecker
TTITLE4=Holdin' You
TTITLE5=Chariot
TTITLE6=What Happened
TTITLE7=When It Rains
TTITLE8=The Bed
TTITLE9=Pocahontas Proud
EXTD=
EXTT0=
EXTT1=
EXTT2=
EXTT3=
EXTT4=
EXTT5=
EXTT6=
EXTT7=
EXTT8=
EXTT9=
PLAYORDER=
